<?xml version="1.0" encoding="utf-8" standalone="no"?>
<!DOCTYPE svg PUBLIC "-//W3C//DTD SVG 1.1//EN"
  "http://www.w3.org/Graphics/SVG/1.1/DTD/svg11.dtd">
<svg xmlns:xlink="http://www.w3.org/1999/xlink" width="720pt" height="144pt" viewBox="0 0 720 144" xmlns="http://www.w3.org/2000/svg" version="1.1">
 <metadata>
  <rdf:RDF xmlns:dc="http://purl.org/dc/elements/1.1/" xmlns:cc="http://creativecommons.org/ns#" xmlns:rdf="http://www.w3.org/1999/02/22-rdf-syntax-ns#">
   <cc:Work>
    <dc:type rdf:resource="http://purl.org/dc/dcmitype/StillImage"/>
    <dc:date>2025-08-01T19:05:41.147591</dc:date>
    <dc:format>image/svg+xml</dc:format>
    <dc:creator>
     <cc:Agent>
      <dc:title>Matplotlib v3.10.0, https://matplotlib.org/</dc:title>
     </cc:Agent>
    </dc:creator>
   </cc:Work>
  </rdf:RDF>
 </metadata>
 <defs>
  <style type="text/css">*{stroke-linejoin: round; stroke-linecap: butt}</style>
 </defs>
 <g id="figure_1">
  <g id="patch_1">
   <path d="M 0 144 
L 720 144 
L 720 0 
L 0 0 
z
" style="fill: #ffffff"/>
  </g>
  <g id="axes_1">
   <g id="line2d_1">
    <path d="M 246.286957 22.32 
L 262.319816 22.427658 
L 278.352676 22.752023 
L 294.385536 23.297361 
L 310.418396 24.071104 
L 325.217959 24.997606 
L 340.017522 26.140335 
L 354.817085 27.515684 
L 368.383352 28.999452 
L 381.949618 30.719767 
L 394.282587 32.514419 
L 405.382259 34.343673 
L 416.481931 36.407401 
L 426.348307 38.47281 
L 434.981385 40.492419 
L 443.614464 42.752053 
L 451.014245 44.924092 
L 457.18073 46.941518 
L 463.347214 49.198933 
L 468.280402 51.228147 
L 473.21359 53.523481 
L 476.91348 55.482998 
L 480.613371 57.734421 
L 483.079965 59.470031 
L 485.546559 61.493129 
L 486.779856 62.665614 
L 488.013153 64.001603 
L 489.24645 65.592454 
L 490.479747 67.673704 
L 491.713043 72.72 
L 491.713043 72.72 
L 490.479747 77.766296 
L 489.24645 79.847546 
L 488.013153 81.438397 
L 485.546559 83.946871 
L 483.079965 85.969969 
L 480.613371 87.705579 
L 476.91348 89.957002 
L 473.21359 91.916519 
L 468.280402 94.211853 
L 463.347214 96.241067 
L 457.18073 98.498482 
L 451.014245 100.515908 
L 443.614464 102.687947 
L 436.214682 104.640602 
L 427.581604 106.691692 
L 417.715228 108.787118 
L 407.848853 110.659263 
L 396.749181 112.537624 
L 384.416211 114.37981 
L 372.083242 115.995946 
L 358.516976 117.541701 
L 344.95071 118.868017 
L 330.151147 120.086221 
L 315.351584 121.08326 
L 299.318724 121.929329 
L 283.285864 122.543996 
L 267.253004 122.935759 
L 251.220144 123.109817 
L 246.286957 123.12 
L 246.286957 123.12 
" clip-path="url(#pf2d62700df)" style="fill: none; stroke: #000000; stroke-width: 1.5; stroke-linecap: square"/>
   </g>
  </g>
 </g>
 <defs>
  <clipPath id="pf2d62700df">
   <rect x="90" y="17.28" width="558" height="110.88"/>
  </clipPath>
 </defs>
</svg>
